# xmcd CD database file
#
# Track frame offsets:
#	150
#	18660
#	35052
#	60419
#	81575
#	99121
#	113164
#	136308
#	156243
#	173088
#	198846
#	220423
#
# Disc length: 3246 seconds
#
# Revision: 1
# Processed by: cddbd v1.5.2PL0 Copyright (c) Steve Scherf et al.
# Submitted via: jetAudio 7
#
DISCID=a10cac0c
DTITLE=BANG TANGO - Ready To Go
DYEAR=2004
DGENRE=Hard Rock
TTITLE0=Ready To Go
TTITLE1=I Came To See You
TTITLE2=It Ain't Easy
TTITLE3=Rainy Day
TTITLE4=The Other Side
TTITLE5=She Knows Better
TTITLE6=Roll Me Over
TTITLE7=Save Myself For You
TTITLE8=Love The Life
TTITLE9=Most Important Thing
TTITLE10=Tell Me
TTITLE11=Carry On
EXTD=YEAR: 2004
EXTT0=
EXTT1=
EXTT2=
EXTT3=
EXTT4=
EXTT5=
EXTT6=
EXTT7=
EXTT8=
EXTT9=
EXTT10=
EXTT11=
PLAYORDER=
